<svg width="24" height="24" viewBox="0 0 24 24" fill="none" xmlns="http://www.w3.org/2000/svg">
<path d="M16 22.027V19.157C16.0375 18.6802 15.973 18.2008 15.811 17.7508C15.6489 17.3008 15.3929 16.8905 15.06 16.547C18.2 16.197 21.5 15.007 21.5 9.54704C21.4997 8.15086 20.9626 6.80824 20 5.79704C20.4558 4.57554 20.4236 3.22539 19.91 2.02704C19.91 2.02704 18.73 1.67704 16 3.50704C13.7078 2.88682 11.2921 2.88682 8.99995 3.50704C6.26995 1.67704 5.08996 2.02704 5.08996 2.02704C4.57633 3.22539 4.5441 4.57554 4.99995 5.79704C4.03008 6.81574 3.49248 8.1705 3.49995 9.57704C3.49995 14.997 6.79995 16.187 9.93995 16.577C9.61095 16.917 9.35722 17.3224 9.19526 17.767C9.03331 18.2115 8.96676 18.6851 8.99995 19.157V22.027" stroke="black" stroke-width="1.5" stroke-linecap="round" stroke-linejoin="round"/>
<path d="M9 20.0271C6 21.0001 3.5 20.0271 2 17.0271" stroke="black" stroke-width="1.5" stroke-linecap="round" stroke-linejoin="round"/>
</svg>
