<svg width="24" height="24" viewBox="0 0 24 24" fill="none" xmlns="http://www.w3.org/2000/svg">
<g clip-path="url(#clip0_61_543)">
<path d="M12 10C12.3978 10 12.7794 9.84196 13.0607 9.56066C13.342 9.27936 13.5 8.89782 13.5 8.5C13.5 8.10218 13.342 7.72064 13.0607 7.43934C12.7794 7.15804 12.3978 7 12 7C11.6022 7 11.2206 7.15804 10.9393 7.43934C10.658 7.72064 10.5 8.10218 10.5 8.5C10.5 8.89782 10.658 9.27936 10.9393 9.56066C11.2206 9.84196 11.6022 10 12 10ZM12 10V15M12 15C12.3978 15 12.7794 15.158 13.0607 15.4393C13.342 15.7206 13.5 16.1022 13.5 16.5C13.5 16.8978 13.342 17.2794 13.0607 17.5607C12.7794 17.842 12.3978 18 12 18C11.6022 18 11.2206 17.842 10.9393 17.5607C10.658 17.2794 10.5 16.8978 10.5 16.5C10.5 16.1022 10.658 15.7206 10.9393 15.4393C11.2206 15.158 11.6022 15 12 15ZM8.25 4.75L10.5 7M13.25 9.75L14.75 11.25M16.25 14.25C16.6478 14.25 17.0294 14.092 17.3107 13.8107C17.592 13.5294 17.75 13.1478 17.75 12.75C17.75 12.3522 17.592 11.9706 17.3107 11.6893C17.0294 11.408 16.6478 11.25 16.25 11.25C15.8522 11.25 15.4706 11.408 15.1893 11.6893C14.908 11.9706 14.75 12.3522 14.75 12.75C14.75 13.1478 14.908 13.5294 15.1893 13.8107C15.4706 14.092 15.8522 14.25 16.25 14.25Z" stroke="black" stroke-width="1.5" stroke-linecap="round" stroke-linejoin="round"/>
<path d="M11.576 1.42401C11.6885 1.31165 11.841 1.24854 12 1.24854C12.159 1.24854 12.3115 1.31165 12.424 1.42401L22.576 11.576C22.6884 11.6885 22.7515 11.841 22.7515 12C22.7515 12.159 22.6884 12.3115 22.576 12.424L12.424 22.576C12.3115 22.6884 12.159 22.7515 12 22.7515C11.841 22.7515 11.6885 22.6884 11.576 22.576L1.42401 12.424C1.31165 12.3115 1.24854 12.159 1.24854 12C1.24854 11.841 1.31165 11.6885 1.42401 11.576L11.576 1.42401Z" stroke="black" stroke-width="1.5" stroke-linecap="round" stroke-linejoin="round"/>
</g>
<defs>
<clipPath id="clip0_61_543">
<rect width="24" height="24" fill="white"/>
</clipPath>
</defs>
</svg>
